PathFileType	4	(X/Y/Z)	RBDS019\RBDS019runT25.trc
DataRate	CameraRate	NumFrames	NumMarkers	Units	OrigDataRate	OrigDataStartFrame	OrigNumFrames
150.000000	150.000000	4	33	mm	150.000000	1125	4500
Frame#	Time	L.ASIS			L.Heel.Bottom			L.Heel.Lateral			L.Heel.Top			L.Iliac.Crest			L.MT1			L.MT5			L.PSIS			L.Shank.Bottom.Lateral			L.Shank.Bottom.Medial			L.Shank.Top.Lateral			L.Shank.Top.Medial			L.Thigh.Bottom.Lateral			L.Thigh.Bottom.Medial			L.Thigh.Top.Lateral			L.Thigh.Top.Medial			R.ASIS			R.ASY			R.Heel.Bottom			R.Heel.Lateral			R.Heel.Top			R.Iliac.Crest			R.MT1			R.MT5			R.PSIS			R.Shank.Bottom.Lateral			R.Shank.Bottom.Medial			R.Shank.Top.Lateral			R.Shank.Top.Medial			R.Thigh.Bottom.Lateral			R.Thigh.Bottom.Medial			R.Thigh.Top.Lateral			R.Thigh.Top.Medial			
		X1	Y1	Z1	X2	Y2	Z2	X3	Y3	Z3	X4	Y4	Z4	X5	Y5	Z5	X6	Y6	Z6	X7	Y7	Z7	X8	Y8	Z8	X9	Y9	Z9	X10	Y10	Z10	X11	Y11	Z11	X12	Y12	Z12	X13	Y13	Z13	X14	Y14	Z14	X15	Y15	Z15	X16	Y16	Z16	X17	Y17	Z17	X18	Y18	Z18	X19	Y19	Z19	X20	Y20	Z20	X21	Y21	Z21	X22	Y22	Z22	X23	Y23	Z23	X24	Y24	Z24	X25	Y25	Z25	X26	Y26	Z26	X27	Y27	Z27	X28	Y28	Z28	X29	Y29	Z29	X30	Y30	Z30	X31	Y31	Z31	X32	Y32	Z32	X33	Y33	Z33	

1126	7.500000000000001	2316.491203130063	972.7508482246182	925.4541910817267	1690.374611085432	359.88349662714	1027.213789078744	1700.122048503739	341.5520231439594	975.2544400195035	1736.093374350204	364.5477297021309	1011.82190024557	2278.718046253075	1045.382850197703	894.1123675345798	1760.399888562453	165.1045132620543	1014.841590477352	1712.357495285818	203.868879216883	926.9789184726701	2150.820451458087	1025.633340500573	981.1273165613105	1814.747122493784	363.7427868508848	936.4345741277713	1801.788279710928	388.3686607243059	979.2758891818739	1871.364838709758	419.2704724541999	918.9620774280785	1862.303263072461	445.8974355164429	963.9565956276443	2133.889251669523	626.6771145729635	877.1445944369048	2078.525810695228	648.6719890779091	920.0476803572164	2162.972870145241	730.9020280058642	862.1981397921489	2109.394385520175	752.2254484740569	903.2618291978142	2295.153061261737	984.4399005902987	1141.645607600245	2487.0536931744	128.7113719479092	1066.910322064843	2334.684778657982	28.34207965665173	1064.404323724421	2358.320070287297	48.54323732725988	1105.180174570615	2331.561615906516	73.88672551457761	1066.699785635269	2241.624436784349	1051.842597615872	1173.037656959152	2517.710637509706	105.235722167443	1022.26542488182	2501.258249774681	76.78635954525218	1125.263540340688	2146.225423670127	1028.754922563113	1082.146143348901	2376.418136199494	177.2378035313741	1125.154787857583	2333.356993243099	175.949187955867	1090.128653765297	2356.471271865927	253.5023233761237	1145.344585773852	2315.566463529416	252.4741895638979	1109.097833082018	2321.732367267019	597.1415512598245	1174.64022705675	2261.749665269586	584.0918022464151	1137.297964027395	2285.521845635053	699.2644056461584	1197.25054039078	2226.518049752926	684.8089316398955	1165.057607731455	
1127	7.506666666666667	2317.24982837318	970.2071635896027	926.4759210135185	1691.94308899584	372.0684110057908	1030.533513332352	1700.382519947411	353.9528142513939	978.3038016826197	1737.574877870946	375.2140672530809	1014.574328081843	2277.838358031308	1042.767351077551	894.4032302156292	1754.455312388272	175.2186599419059	1015.374460704466	1706.860977776746	216.6838324064204	928.4210889887984	2150.848377235999	1021.78351845715	981.6363378174696	1815.697168615002	371.1216853162142	938.2463823602773	1804.216174896548	396.1902018761128	981.2309069551964	1874.605806271272	424.1096858976706	920.6042943691032	1867.094101592237	450.98901716594	965.7029734995372	2139.427500088259	620.8712825119044	877.3135866280224	2083.949125267688	641.6599878499887	920.6487364401735	2166.517873721878	725.6580313325456	862.8879453813737	2112.897168439554	745.8689758974635	904.3566281541479	2294.232226225129	981.2935874428765	1142.876568955334	2486.337282448173	125.2012189223376	1066.797938862019	2334.017900214775	25.16599002374333	1065.062694450007	2357.92320021654	45.32370899192662	1105.660898412624	2331.15834208762	70.6203096476077	1067.174198792064	2240.839073330932	1048.658174499581	1173.41902970272	2516.672868515026	101.4239300679183	1022.175100049306	2500.667726769695	73.36049598352915	1125.036593294658	2145.62024841083	1024.27942548065	1082.661367726421	2375.481759853568	172.9136996379608	1125.498760846237	2332.278036393062	171.1944452828704	1090.586513163103	2355.013757026191	249.0695750155875	1145.621746461658	2313.941103498203	247.6433289487501	1109.517746380215	2317.510079025979	593.1435533778305	1174.659909758451	2257.74159665115	580.7998169422484	1136.555217792025	2281.973573283468	695.5215636674495	1197.351164069386	2223.091271851612	681.7097325124278	1164.493039454287	
1128	7.513333333333334	2317.922669863264	967.0415335560456	927.5493937845781	1694.946232229063	383.9356979597508	1033.568191754826	1702.207870092167	366.1128566249161	981.0983184348596	1740.466084530427	385.5183083861755	1017.140898109025	2277.14283803839	1039.358719412501	894.6015994353693	1749.602693401318	185.2622784933483	1015.730537098047	1702.913899927634	229.5030506811354	929.6166440637188	2150.734786594451	1017.191446736406	981.8742937577541	1817.931485475632	378.0809160361771	939.8938316220423	1807.871628088971	403.5448067310554	982.9812174566035	1879.063315678982	428.4031301336736	922.119561262299	1873.011995951709	455.4702135948724	967.2841298161815	2145.043913260219	614.4141501800459	877.4812565500691	2089.570240228974	633.8764733680238	921.4026371204731	2169.961625142223	719.773814311128	863.5747081243157	2116.411831050089	738.7472057690517	905.5947617083018	2293.113222663869	977.6959565536923	1144.259354464691	2483.472932839194	120.7806213362151	1066.728288582181	2330.258931812242	22.91339980599498	1065.679877629123	2354.561975490239	42.85490029814131	1106.097196415094	2328.200566875849	68.26471748322062	1067.477838953876	2239.780113412628	1045.091205317638	1173.741362870855	2513.303040260819	96.26443461458757	1022.251751091524	2497.266545709697	69.15311159269775	1125.031475330987	2144.729525602763	1019.148406868394	1082.895477624688	2372.812598768572	168.5401222067599	1125.698650884147	2329.475194427217	166.7430058723157	1090.896094923256	2352.367589764823	244.7071361485888	1145.757561153579	2311.164632727912	243.2011141006548	1109.797004192666	2313.877246530762	589.1016550793011	1174.573244154807	2254.303347348744	577.1932929472783	1135.898982002452	2278.734907002919	691.6224732506474	1197.317833570913	2219.963431858481	678.2134379157179	1163.967083573591	
1129	7.52	2318.478596533465	963.2458539200121	928.6592954650167	1699.356885438647	395.4051631146938	1036.321017708336	1705.588685489496	377.9431636804628	983.6313201604402	1744.751858289705	395.3799714125655	1019.533896121577	2276.702483289827	1035.14578837457	894.721535578504	1745.887651218938	195.1436890326612	1015.885232423336	1700.565390084078	242.2124714990784	930.5318678649147	2150.45169956891	1011.860095502562	981.8048417310523	1821.431171167658	384.5726174027499	941.378463959965	1812.734898603185	410.3857517863048	984.538227096869	1884.701722622833	432.1189153735813	923.4973395040059	1880.0262139129	459.3108125282815	968.7012818263511	2150.751832243134	607.3379317132684	877.6492838322944	2095.384299798083	625.3736015246146	922.2754623653476	2173.325247874962	713.2649197244428	864.2235802631099	2119.938453162687	730.8935725343601	906.9065553068779	2291.781805482255	973.6507951165261	1145.795663586038	2478.526890796994	115.5765421042973	1066.651744152246	2323.57669255194	21.51604358078126	1066.20117434387	2348.382939020214	41.08269418478059	1106.443563338508	2322.781501696976	66.75587301168063	1067.582600751394	2238.442278165141	1041.090697893056	1174.034454136819	2507.709408211735	89.99322874630184	1022.41942462412	2491.204465570308	64.30698890354117	1125.212603711155	2143.534965290638	1013.405884602737	1082.820489863483	2368.510188081855	164.1763243689723	1125.737974682576	2325.033357240216	162.6740804320812	1091.064775366107	2348.636682368432	240.458295361678	1145.778485905701	2307.322435294327	239.2133863510626	1109.982344752395	2310.931543621856	585.0257737296904	1174.481138938018	2251.548158289288	573.2765934556231	1135.409371456716	2275.868679696581	687.5637526314736	1197.245051519494	2217.214732958029	674.3111669385612	1163.545548466633	
